<svg width="156" height="46" fill="none" xmlns="http://www.w3.org/2000/svg"><path d="M156 40.133V4.928C156 2.215 153.801 0 151.115 0H5.881C3.18 0 .995 2.215.995 4.928v35.205c0 2.712 2.199 4.928 4.885 4.928h145.235c2.701 0 4.885-2.216 4.885-4.928z" fill="#000" clip-path="url(#a)"/><defs><clipPath id="a"><path fill="#fff" d="M.995 0H156v46H.995V0z"/></clipPath></defs><g data-name="&lt;Group&gt;"><path data-name="&lt;Path&gt;" d="M24.769 20.3a4.949 4.949 0 0 1 2.356-4.151 5.066 5.066 0 0 0-3.99-2.158c-1.68-.176-3.308 1.005-4.164 1.005-.872 0-2.19-.988-3.608-.958a5.315 5.315 0 0 0-4.473 2.728c-1.934 3.348-.491 8.269 1.361 10.976.927 1.325 2.01 2.805 3.428 2.753 1.387-.058 1.905-.885 3.58-.885 1.658 0 2.144.885 3.59.852 1.489-.025 2.426-1.332 3.32-2.67a10.962 10.962 0 0 0 1.52-3.092 4.782 4.782 0 0 1-2.92-4.4zM22.037 12.21a4.872 4.872 0 0 0 1.115-3.49 4.957 4.957 0 0 0-3.208 1.66A4.636 4.636 0 0 0 18.8 13.74a4.1 4.1 0 0 0 3.237-1.53z" style="fill:#fff" transform="matrix(1.0953 0 0 1.0953 12.813 -.538)"/></g><path d="M59.147 29.188h-5.185l-1.245 3.677h-2.196l4.911-13.602h2.282l4.91 13.602h-2.233l-1.244-3.677zm-4.648-1.696h4.11l-2.026-5.967h-.057l-2.027 5.967zM73.23 27.907c0 3.081-1.65 5.061-4.139 5.061a3.36 3.36 0 0 1-3.12-1.735h-.047v4.912h-2.035V22.948h1.97v1.649h.037a3.52 3.52 0 0 1 3.158-1.753c2.517 0 4.176 1.99 4.176 5.063zm-2.092 0c0-2.008-1.038-3.328-2.621-3.328-1.555 0-2.601 1.348-2.601 3.328 0 1.998 1.046 3.336 2.601 3.336 1.583 0 2.621-1.31 2.621-3.336zM84.144 27.907c0 3.081-1.649 5.061-4.138 5.061a3.358 3.358 0 0 1-3.12-1.735h-.047v4.912h-2.036V22.948h1.97v1.649h.038a3.517 3.517 0 0 1 3.157-1.753c2.517 0 4.176 1.99 4.176 5.063zm-2.092 0c0-2.008-1.038-3.328-2.621-3.328-1.555 0-2.601 1.348-2.601 3.328 0 1.998 1.046 3.336 2.601 3.336 1.584 0 2.621-1.31 2.621-3.336zM91.358 29.075c.151 1.349 1.461 2.234 3.252 2.234 1.715 0 2.95-.885 2.95-2.102 0-1.055-.745-1.687-2.508-2.121l-1.762-.424c-2.498-.604-3.657-1.772-3.657-3.667 0-2.347 2.045-3.959 4.949-3.959 2.874 0 4.844 1.612 4.91 3.959h-2.054c-.123-1.357-1.245-2.177-2.885-2.177-1.64 0-2.762.829-2.762 2.036 0 .961.717 1.527 2.47 1.96l1.498.368c2.791.66 3.951 1.781 3.951 3.771 0 2.544-2.027 4.138-5.251 4.138-3.017 0-5.053-1.556-5.185-4.016h2.084zM104.103 20.601v2.347h1.885v1.612h-1.885v5.467c0 .849.377 1.245 1.206 1.245.224-.004.447-.02.67-.047v1.602c-.373.07-.752.101-1.131.094-2.008 0-2.791-.754-2.791-2.677V24.56h-1.441v-1.612h1.441v-2.347h2.046zM107.08 27.907c0-3.12 1.838-5.081 4.704-5.081 2.875 0 4.704 1.961 4.704 5.081 0 3.128-1.82 5.081-4.704 5.081-2.884 0-4.704-1.953-4.704-5.081zm7.334 0c0-2.141-.981-3.404-2.63-3.404-1.65 0-2.63 1.273-2.63 3.404 0 2.149.98 3.402 2.63 3.402 1.649 0 2.63-1.253 2.63-3.402zM118.166 22.948h1.941v1.688h.048a2.364 2.364 0 0 1 2.385-1.792c.234-.001.468.025.697.076v1.904a2.858 2.858 0 0 0-.914-.123 2.05 2.05 0 0 0-2.121 2.282v5.881h-2.036v-9.916zM132.622 29.952c-.274 1.8-2.027 3.036-4.27 3.036-2.885 0-4.675-1.933-4.675-5.034 0-3.111 1.8-5.128 4.59-5.128 2.743 0 4.469 1.885 4.469 4.891v.698h-7.004v.123a2.582 2.582 0 0 0 2.667 2.809 2.244 2.244 0 0 0 2.29-1.395h1.933zm-6.881-2.96h4.958a2.386 2.386 0 0 0-2.432-2.517 2.511 2.511 0 0 0-2.526 2.517zM54.244 9.025a2.891 2.891 0 0 1 3.075 3.248c0 2.087-1.128 3.288-3.075 3.288h-2.36V9.025h2.36zm-1.345 5.611h1.232a2.054 2.054 0 0 0 2.155-2.35 2.06 2.06 0 0 0-2.155-2.337h-1.232v4.687zM58.466 13.092c-.171-1.79 1.66-3.095 3.296-2.348a2.338 2.338 0 0 1 1.356 2.348c.174 1.791-1.655 3.099-3.293 2.354a2.335 2.335 0 0 1-1.359-2.354zm3.651 0c0-1.069-.481-1.694-1.323-1.694-.846 0-1.322.625-1.322 1.694 0 1.078.476 1.698 1.322 1.698.842 0 1.323-.624 1.323-1.698zM69.301 15.561h-1.009l-1.02-3.633h-.077l-1.015 3.633h-1l-1.359-4.933h.987l.883 3.764h.073l1.014-3.764h.934l1.014 3.764h.077l.879-3.764h.974l-1.355 4.933zM71.799 10.628h.937v.784h.073c.253-.577.844-.93 1.472-.879a1.605 1.605 0 0 1 1.707 1.835v3.192h-.974v-2.948c0-.793-.344-1.187-1.064-1.187a1.132 1.132 0 0 0-1.178 1.25v2.886h-.973v-4.933zM77.539 8.703h.973v6.857h-.973V8.703zM79.865 13.092c-.171-1.79 1.661-3.095 3.297-2.348a2.34 2.34 0 0 1 1.356 2.348c.174 1.791-1.656 3.099-3.294 2.354a2.337 2.337 0 0 1-1.359-2.354zm3.651 0c0-1.069-.48-1.694-1.323-1.694-.846 0-1.322.625-1.322 1.694 0 1.078.476 1.698 1.322 1.698.843 0 1.323-.624 1.323-1.698zM85.542 14.166c0-.888.661-1.4 1.835-1.473l1.336-.077v-.425c0-.521-.345-.815-1.01-.815-.543 0-.92.199-1.028.548h-.942c.099-.847.896-1.391 2.015-1.391 1.236 0 1.934.616 1.934 1.658v3.37h-.937v-.694h-.077a1.66 1.66 0 0 1-1.482.775 1.49 1.49 0 0 1-1.644-1.476zm3.171-.422v-.412l-1.205.077c-.679.045-.987.276-.987.711 0 .444.385.702.915.702a1.163 1.163 0 0 0 1.277-1.078zM90.961 13.092c0-1.558.801-2.545 2.047-2.545a1.626 1.626 0 0 1 1.513.865h.073V8.703h.973v6.857h-.933v-.779h-.077a1.712 1.712 0 0 1-1.549.861c-1.254 0-2.047-.987-2.047-2.55zm1.006 0c0 1.046.493 1.676 1.317 1.676.821 0 1.328-.639 1.328-1.671 0-1.028-.513-1.676-1.328-1.676-.819 0-1.318.634-1.318 1.671h.001zM99.594 13.092c-.171-1.79 1.66-3.095 3.296-2.348a2.338 2.338 0 0 1 1.356 2.348c.174 1.791-1.655 3.099-3.293 2.354a2.335 2.335 0 0 1-1.359-2.354zm3.651 0c0-1.069-.481-1.694-1.323-1.694-.847 0-1.322.625-1.322 1.694 0 1.078.476 1.698 1.322 1.698.842 0 1.323-.624 1.323-1.698zM105.552 10.628h.937v.784h.073c.253-.577.844-.93 1.471-.879a1.605 1.605 0 0 1 1.708 1.835v3.192h-.974v-2.948c0-.793-.344-1.187-1.064-1.187a1.132 1.132 0 0 0-1.178 1.25v2.886h-.973v-4.933zM115.241 9.4v1.251h1.068v.82h-1.068v2.536c0 .517.213.743.697.743.124-.001.248-.008.371-.023v.811a3.244 3.244 0 0 1-.529.05c-1.083 0-1.514-.381-1.514-1.332v-2.785h-.783v-.82h.783V9.4h.975zM117.639 8.703h.965v2.718h.077a1.516 1.516 0 0 1 1.503-.883 1.624 1.624 0 0 1 1.699 1.838v3.185h-.974v-2.945c0-.787-.367-1.186-1.055-1.186a1.152 1.152 0 0 0-1.242 1.25v2.88h-.973V8.703zM127.559 14.229a2.004 2.004 0 0 1-2.138 1.427 2.24 2.24 0 0 1-2.278-2.546 2.275 2.275 0 0 1 2.274-2.577c1.372 0 2.2.938 2.2 2.487v.339h-3.482v.055a1.303 1.303 0 0 0 1.313 1.413c.476.057.94-.179 1.174-.598h.937zm-3.424-1.59h2.491a1.19 1.19 0 0 0-1.214-1.277 1.26 1.26 0 0 0-1.277 1.277z" style="fill:#fff"/></svg>