<svg width="156" height="46" fill="none" xmlns="http://www.w3.org/2000/svg"><path d="M156 40.133V4.928C156 2.215 153.801 0 151.115 0H5.881C3.18 0 .995 2.215.995 4.928v35.205c0 2.712 2.199 4.928 4.885 4.928h145.235c2.701 0 4.885-2.216 4.885-4.928z" fill="#000" clip-path="url(#a)"/><defs><clipPath id="a"><path fill="#fff" d="M.995 0H156v46H.995V0z"/></clipPath></defs><path d="M59.5 12.66h2.23a3.1 3.1 0 0 1 3.12 3.43c0 2.09-1.25 3.56-3.13 3.56H59.5zm.5 6.49h1.62c1.78 0 2.65-1.3 2.65-3 0-1.54-.78-3-2.65-3H60zm6.25-6.86h.48v1h-.48zm0 2.36h.48v5h-.48zM68.3 16v-1.36h.47v1.12a1.82 1.82 0 0 1 1.67-1.24v.54a1.78 1.78 0 0 0-1.67 2v2.6h-.47zm3.13 1.21c0 1.29.64 2.09 1.56 2.09a1.35 1.35 0 0 0 1.38-.94h.49A1.85 1.85 0 0 1 73 19.77c-1.46 0-2-1.31-2-2.58 0-1.43.68-2.66 2.08-2.66a2 2 0 0 1 2 2.27v.41zm3-.44c0-1-.53-1.77-1.47-1.77s-1.44.72-1.55 1.77zm5.29 1.41a1.86 1.86 0 0 1-1.86 1.59c-1.2 0-2-.93-2-2.6 0-1.37.7-2.64 2.11-2.64a1.73 1.73 0 0 1 1.8 1.6h-.49A1.3 1.3 0 0 0 77.91 15c-1 0-1.59.9-1.59 2.15s.53 2.15 1.54 2.15a1.36 1.36 0 0 0 1.37-1.12zm.51-3.53h.89V13.1h.48v1.55h1.14v.47H81.6v3.25c0 .56.12.88.58.88a1.79 1.79 0 0 0 .5-.06v.44a1.68 1.68 0 0 1-.6.09c-.61 0-1-.32-1-1.12v-3.48h-.89zm6.14-1.99h2.22c1.85 0 3.12 1.33 3.12 3.43s-1.24 3.56-3.13 3.56h-2.21zm.52 6.49h1.62c1.77 0 2.65-1.3 2.65-3 0-1.54-.79-3-2.65-3h-1.62zm10.03-2.01c0 1.39-.74 2.63-2.17 2.63s-2.1-1.11-2.1-2.62.76-2.62 2.15-2.62 2.12 1.04 2.12 2.61zm-3.76 0c0 1.19.61 2.15 1.63 2.15s1.62-.89 1.62-2.15S95.84 15 94.77 15s-1.61 1-1.61 2.15zm4.93-2.49c.71 2.58 1.12 4.06 1.2 4.5.08-.4.55-2 1.3-4.5h.52c.89 3.09 1.16 4 1.25 4.37.13-.55.35-1.3 1.24-4.37h.51l-1.52 5h-.53c-.52-1.77-1.14-3.94-1.24-4.4-.09.49-.64 2.28-1.26 4.4H99l-1.41-5zm6.91 1.26v-1.26h.47v.95a1.59 1.59 0 0 1 1.6-1.07c.85 0 1.61.5 1.61 1.88v3.24h-.48v-3.16c0-.89-.36-1.47-1.19-1.47-1.14 0-1.54 1-1.54 2.08v2.55H105zm5.27 3.74v-7.36h.48v7.36zm5.94-2.51c0 1.39-.74 2.63-2.17 2.63s-2.1-1.11-2.1-2.62.76-2.62 2.15-2.62 2.12 1.04 2.12 2.61zm-3.76 0c0 1.19.61 2.15 1.63 2.15s1.62-.89 1.62-2.15-.58-2.14-1.64-2.14-1.61 1-1.61 2.15zm8.24 1.56a7.65 7.65 0 0 0 .06.95h-.46a4.35 4.35 0 0 1-.08-.77 1.59 1.59 0 0 1-1.58.89 1.46 1.46 0 0 1-1.59-1.5c0-1.1.82-1.6 2.26-1.6h.91v-.51c0-.5-.15-1.17-1.24-1.17a1.06 1.06 0 0 0-1.22.94h-.48a1.51 1.51 0 0 1 1.71-1.4c1.09 0 1.71.48 1.71 1.58zm-.47-1.6h-.94c-1.07 0-1.73.29-1.73 1.15a1 1 0 0 0 1.1 1.06c1.38 0 1.57-.95 1.57-2zm5.78-4.81v7.36h-.46v-.84a1.57 1.57 0 0 1-1.61 1c-1.25 0-2-1.06-2-2.56s.82-2.68 2.12-2.68a1.46 1.46 0 0 1 1.49.75v-3zm-3.58 4.9c0 1.37.68 2.11 1.51 2.11 1.27 0 1.61-.91 1.61-2.27s-.3-2-1.52-2c-1.02-.03-1.63.76-1.63 2.16zM61.29 33l-1.37 3.59h-2l4.74-12.5h2.47l4.94 12.5H68L66.56 33zm4.78-1.57c-1.22-3.16-1.9-4.9-2.2-5.88-.33 1.09-1.09 3.18-2.07 5.88zm6.05-7.36h5.19c2.66 0 4.47 1.38 4.47 3.68 0 2.49-1.94 3.77-4.57 3.77h-3.08v5.05h-2zm2 5.91h2.94c1.74 0 2.67-.77 2.67-2.19s-1.1-2.18-2.6-2.18h-3zm10.1-5.91h2v6c1-1 4.26-4.05 6.3-6H95l-5.7 5.26 6 7.24h-2.48l-5-6-1.62 1.37v4.63h-2zm17.35 0h8.76v1.57h-6.81v3.87h6.39v1.57h-6.39v5.49h-2zm10.67-.7h1.9v2h-1.9zm0 4h1.9v9.16h-1.9zm4.76 9.2v-13.2h1.9v13.2zm5.91-4.24c0 1.72.94 3 2.55 3a2.13 2.13 0 0 0 2.25-1.33h1.91a4 4 0 0 1-4.21 2.79c-3.13 0-4.42-2.33-4.42-4.7 0-2.75 1.5-4.9 4.52-4.9 3.22 0 4.28 2.35 4.28 4.37a6.27 6.27 0 0 1 0 .77zm5-1.2a2.32 2.32 0 0 0-2.38-2.58c-1.64 0-2.36 1.07-2.52 2.58zm-93.06-.04a3 3 0 0 0-.67.06v2a2.64 2.64 0 0 0 .54 0c.87 0 1.41-.41 1.41-1.09s-.46-1-1.28-1zm-6.62 0c-.11.39-.21.9-.33 1.28l-.43 1.42h1.6l-.45-1.42c-.13-.39-.26-.89-.37-1.28zm18.1-14.89a.58.58 0 0 0-.15-.37l-6.1-6.44a.61.61 0 0 0-.16-.12H24.61a1.2 1.2 0 0 0-1.24 1.14v27a1.2 1.2 0 0 0 1.24 1.14h20.48a1.2 1.2 0 0 0 1.24-1.14v-21a.17.17 0 0 0 0-.07zM29.84 36.67 29.28 35h-2.06l-.52 1.71H25L27.22 30h2.14l2.24 6.67zm7.24-3.06a3.51 3.51 0 0 1-2.35.7 4.33 4.33 0 0 1-.55 0v2.39h-1.62v-6.61a14.28 14.28 0 0 1 2.21-.09 3.71 3.71 0 0 1 2.2.53 1.9 1.9 0 0 1 .77 1.47 2 2 0 0 1-.66 1.58zm5.71 3.06L41 33.79l-.62.7v2.18h-1.6V30h1.62v3c.16-.26.34-.5.5-.73L42.57 30h2l-2.39 2.84 2.52 3.83zm-7.89-8a1 1 0 0 0 0-1.41 1.15 1.15 0 0 0-1.53 0l-1.56 1.44h-.76L33 26.87l-6.86-6.34L24.62 22v-.71l1.17-1.08a1 1 0 0 0 0-1.41 1.15 1.15 0 0 0-1.17-.21v-8.25H39v5.87a.6.6 0 0 0 .62.57h5.48v11.88zm1-7.55-1.43.42a4.68 4.68 0 0 0-2.48-2.29l.46-1.32a.14.14 0 0 0-.09-.16.14.14 0 0 0-.17.09l-.45 1.3a5.16 5.16 0 0 0-4.74.69l6.82 6.3a4.19 4.19 0 0 0 .75-4.38l1.41-.41a.1.1 0 0 0 .08-.06.11.11 0 0 0 0-.1.16.16 0 0 0-.07-.07.16.16 0 0 0-.1 0zM30.53 21a.83.83 0 0 1-.76.2.76.76 0 0 1-.56-.52.69.69 0 0 1 .22-.71.83.83 0 0 1 1.08 0 .69.69 0 0 1 0 1zm3 2.82a.81.81 0 0 1-.75.18.76.76 0 0 1-.56-.51.69.69 0 0 1 .21-.7.83.83 0 0 1 1.1 0 .69.69 0 0 1 0 1zm0 0" transform="matrix(1.10092 0 0 1.10092 -5.853 -3.155)" fill="#fff" style="transform-origin:-.001842px 1.96928px"/></svg>