<svg width="12" height="12" fill="none" xmlns="http://www.w3.org/2000/svg"><g clip-path="url(#clip0)"><path d="M6 1.081c1.602 0 1.792.006 2.425.036 1.626.073 2.385.845 2.46 2.459.029.632.034.823.034 2.424 0 1.603-.006 1.793-.035 2.425-.074 1.612-.832 2.385-2.459 2.46-.633.029-.822.034-2.425.034-1.602 0-1.792-.005-2.425-.035-1.63-.074-2.385-.849-2.459-2.46-.029-.632-.035-.821-.035-2.424 0-1.602.006-1.792.035-2.425.074-1.613.832-2.385 2.46-2.459.632-.029.822-.035 2.424-.035zM6 0C4.37 0 4.167.007 3.526.036c-2.179.1-3.39 1.309-3.49 3.49C.008 4.166 0 4.371 0 6c0 1.63.007 1.834.036 2.474.1 2.179 1.309 3.39 3.49 3.49.64.029.845.036 2.474.036 1.63 0 1.834-.007 2.474-.036 2.177-.1 3.391-1.309 3.49-3.49.029-.64.036-.845.036-2.474 0-1.63-.007-1.833-.036-2.474-.098-2.176-1.309-3.39-3.49-3.49C7.835.008 7.63 0 6 0zm0 2.919a3.081 3.081 0 100 6.162A3.081 3.081 0 006 2.92zM6 8a2 2 0 110-4 2 2 0 010 4zm3.203-5.922a.72.72 0 100 1.44.72.72 0 000-1.44z" fill="#fff"/></g><defs><clipPath id="clip0"><path fill="#fff" d="M0 0h12v12H0z"/></clipPath></defs></svg>