<svg width="156" height="46" fill="none" xmlns="http://www.w3.org/2000/svg"><g clip-path="url(#clip0)"><path d="M156 40.133V4.928C156 2.215 153.801 0 151.115 0H5.881C3.18 0 .995 2.215.995 4.928v35.205c0 2.712 2.199 4.928 4.885 4.928h145.235c2.701 0 4.885-2.216 4.885-4.928z" fill="#000"/><path d="M82.702 14.588c-1.048 0-1.93-.372-2.63-1.103a3.786 3.786 0 01-1.061-2.692c0-1.069.358-1.973 1.062-2.69C80.768 7.372 81.65 7 82.699 7c1.036 0 1.919.372 2.629 1.103.704.74 1.061 1.645 1.061 2.69-.011 1.07-.369 1.975-1.061 2.689-.696.737-1.579 1.106-2.626 1.106zm-31.168 0a3.626 3.626 0 01-2.64-1.089c-.722-.72-1.088-1.63-1.088-2.704 0-1.074.366-1.984 1.088-2.704.712-.722 1.601-1.088 2.64-1.088.508 0 1.001.102 1.474.31a2.98 2.98 0 011.123.814l.07.084-.783.779-.08-.097c-.442-.532-1.034-.793-1.816-.793a2.49 2.49 0 00-1.809.75c-.505.5-.762 1.155-.762 1.948 0 .793.257 1.449.762 1.95a2.49 2.49 0 001.81.748c.744 0 1.37-.251 1.858-.749.288-.292.467-.702.53-1.22h-2.507v-1.095h3.584l.014.1c.026.184.052.375.052.55 0 1.01-.3 1.826-.894 2.43-.675.713-1.558 1.076-2.626 1.076zm41.44-.155H91.87L88.484 8.94l.03.99v4.5h-1.106V7.158h1.261l.035.056 3.183 5.173-.03-.986V7.158h1.118v7.275zm-18.577 0h-1.12v-6.18h-1.942V7.157h5v1.094h-1.941v6.18h.003zm-3.974 0h-1.117V7.158h1.117v7.275zm-6.276 0H63.03v-6.18h-1.942V7.157h5.001v1.094h-1.942v6.18zm-3.766-.012H56.1V7.158h4.282v1.094H57.22v1.996h2.853v1.083H57.22v1.996h3.162v1.094zm20.511-1.688c.5.506 1.106.76 1.81.76.724 0 1.316-.248 1.809-.76.49-.498.739-1.15.739-1.938 0-.787-.249-1.442-.736-1.937a2.458 2.458 0 00-1.81-.76c-.724 0-1.315.248-1.806.76-.49.498-.739 1.15-.739 1.937 0 .788.246 1.443.733 1.938z" fill="#fff"/><path fill-rule="evenodd" clip-rule="evenodd" d="M78.908 24.59c-2.727 0-4.938 2.099-4.938 4.993 0 2.868 2.225 4.992 4.938 4.992 2.727 0 4.937-2.113 4.937-4.992 0-2.894-2.21-4.993-4.937-4.993zm0 8.007c-1.492 0-2.776-1.252-2.776-3.026 0-1.8 1.287-3.026 2.776-3.026 1.492 0 2.776 1.226 2.776 3.026.002 1.785-1.284 3.026-2.776 3.026zM68.135 24.59c-2.726 0-4.937 2.099-4.937 4.993 0 2.868 2.225 4.992 4.937 4.992 2.727 0 4.938-2.113 4.938-4.992 0-2.894-2.213-4.993-4.938-4.993zm0 8.007c-1.491 0-2.775-1.252-2.775-3.026 0-1.8 1.287-3.026 2.775-3.026 1.492 0 2.776 1.226 2.776 3.026 0 1.785-1.284 3.026-2.776 3.026zm-12.818-6.482v2.113h5.001c-.153 1.185-.54 2.06-1.13 2.66-.734.743-1.865 1.551-3.859 1.551-3.073 0-5.477-2.517-5.477-5.633 0-3.117 2.404-5.634 5.477-5.634 1.66 0 2.868.665 3.766 1.513l1.477-1.498c-1.246-1.212-2.906-2.14-5.231-2.14-4.216 0-7.754 3.483-7.754 7.747 0 4.276 3.535 7.746 7.754 7.746 2.276 0 3.985-.755 5.335-2.177 1.377-1.396 1.812-3.365 1.812-4.954 0-.495-.037-.94-.115-1.317h-7.058c.003-.003.003.023.003.023zm52.43 1.645c-.413-1.121-1.66-3.181-4.216-3.181-2.534 0-4.64 2.022-4.64 4.992 0 2.804 2.083 4.993 4.885 4.993 2.251 0 3.561-1.396 4.101-2.216l-1.671-1.135c-.554.834-1.325 1.381-2.418 1.381-1.106 0-1.879-.51-2.393-1.513l6.583-2.765c0 .003-.231-.556-.231-.556zm-6.712 1.668c-.052-1.929 1.477-2.91 2.571-2.91.863 0 1.581.431 1.826 1.057l-4.397 1.853zm-5.347 4.837h2.16V19.598h-2.16v14.667zm-3.55-8.566h-.078c-.487-.588-1.414-1.12-2.597-1.12-2.455 0-4.718 2.192-4.718 5.007 0 2.803 2.251 4.969 4.718 4.969 1.169 0 2.11-.536 2.597-1.136h.078v.717c0 1.905-1.004 2.933-2.623 2.933-1.324 0-2.147-.966-2.481-1.774l-1.879.796c.54 1.317 1.98 2.947 4.357 2.947 2.534 0 4.68-1.513 4.68-5.203v-8.958H92.15v.823h-.012zm-2.481 6.898c-1.492 0-2.739-1.264-2.739-3.011 0-1.762 1.247-3.038 2.739-3.038 1.477 0 2.623 1.29 2.623 3.038.014 1.747-1.143 3.011-2.623 3.011zm28.21-12.999h-5.169v14.667h2.162v-5.554h3.009c2.393 0 4.744-1.759 4.744-4.55 0-2.793-2.343-4.563-4.746-4.563zm.063 7.064h-3.073V21.63h3.073c1.619 0 2.534 1.355 2.534 2.517 0 1.15-.927 2.516-2.534 2.516zm13.346-2.098c-1.57 0-3.188.705-3.858 2.242l1.916.807c.413-.807 1.169-1.082 1.968-1.082 1.12 0 2.251.679 2.277 1.89v.155c-.387-.222-1.235-.562-2.251-.562-2.069 0-4.167 1.148-4.167 3.298 0 1.97 1.697 3.234 3.587 3.234 1.452 0 2.251-.664 2.75-1.434h.078v1.136h2.083v-5.62c0-2.615-1.916-4.064-4.383-4.064zm-.271 8.033c-.707 0-1.697-.351-1.697-1.252 0-1.136 1.235-1.566 2.288-1.566.953 0 1.403.208 1.968.494-.155 1.317-1.252 2.312-2.559 2.324zm12.255-7.72l-2.481 6.362h-.078l-2.571-6.362h-2.326l3.858 8.893-2.199 4.943h2.251l5.936-13.836h-2.39zm-19.455 9.388h2.162V19.598h-2.162v14.667zM26.568 21.496l4.234-4.295-16.256-9.364c-.66-.382-1.274-.474-1.766-.324l13.788 13.983zM11.766 8.554a3.09 3.09 0 00-.152 1.004v25.948c0 .382.053.716.153 1l13.78-13.976L11.766 8.554zm25.343 12.282l-5.006-2.885-4.515 4.58 4.516 4.579 5.005-2.885c1.619-.937 1.619-2.464 0-3.39zm-10.542 2.729l-13.796 13.99c.494.152 1.111.058 1.775-.317l16.256-9.378-4.235-4.295z" fill="#fff"/></g><defs><clipPath id="clip0"><path fill="#fff" d="M.995 0H156v46H.995z"/></clipPath></defs></svg>